{"title":"MOZU Season 1 (2014) Complete (Hardsubbed) BANKAI","uid":10413636,"size":1924516571,"categoryP":"video","categoryS":"tv_shows","magnet":"?xt=urn:btih:5f53faefdbb06a4c8f238e9ab44777390c4a0165&amp;dn=MOZU+Season+1+%282014%29+Complete+%28Hardsubbed%29+BANKAI&amp;tr=udp%3A%2F%2Ftracker.openbittorrent.com%3A80&amp;tr=udp%3A%2F%2Fopen.demonii.com%3A1337&amp;tr=udp%3A%2F%2Ftracker.coppersurfer.tk%3A6969&amp;tr=udp%3A%2F%2Fexodus.desync.com%3A6969","seeders":1,"leechers":2,"uploader":"8ankai","files":10,"time":1403567157,"description":"MOZU Season 1 (2014)\n &lt;a href=&quot;\nhttp://i.imgur.com/JhanNgc.jpg&quot; rel=&quot;nofollow&quot; target=&quot;_NEW&quot;&gt;\nhttp://i.imgur.com/JhanNgc.jpg&lt;/a&gt;\n &lt;a href=&quot;\nhttp://i.imgur.com/dduMcRr.jpg&quot; rel=&quot;nofollow&quot; target=&quot;_NEW&quot;&gt;\nhttp://i.imgur.com/dduMcRr.jpg&lt;/a&gt;\n\n\nINFO:\nFormat : Renzoku\nGenre : Suspense, crime\nEpisodes : 10\nBroadcast network : TBS\nOriginal work (novel) : &quot;Mozu no Sakebu Yoru&quot; by Ousaka Go\nEncoder : BANKAI  \nSubtitle : ENGLISH HARDSUBBED\n\n*English Subtitles by Miharu-Rush\n*Raws by furransu\n\n\nCAST:\nNishijima Hidetoshi as Kuraki Naotake\nKagawa Teruyuki as Osugi Ryota\nMaki Yoko as Akeboshi Misa\nNamase Katsuhisa as Muroi Gen\nYoshida Kotaro as Nakagawa Jin\nIto Atsushi as Narumiya Keisuke\nArimura Kasumi as Nakajima Ami\nIkematsu Sosuke as Shingai Kazuhiko\nOkunuki Kaoru as Kurusu Toshitada\nToda Masahiro as Wakamatsu Tadahisa\nTsurumi Shingo as Murase Tatsuomi\nSometani Nishota (????) as Minami Takayuki\nTaguchi Hiromasa as Akai Nobuteru\nTanaka Yoji as Kakei Shunzo\nHoriuchi Keiko as Osugi Keiko\nSugisaki Hana as Osugi Megumi\nOtozuki Kei as Akehoshi Kaori\nAbe Tsuyoshi as Muranishi Satoru\nSagawa Tetsuro as Morihara Kengo\nShinagawa Toru as Terakado Mamoru\nHasegawa Hiroki as Higashi Kazuo\nIshida Yuriko as Kuraki Chihiro\nKohinata Fumiyo as Tsuki Shunsuke\n\n\nSYNOPSIS:\nKuraki Naotake is the top ace of the Public Safety Department. Osugi Ryota is a top-notch straight-talking detective from the MPD. Akeboshi Misa is an investigator from the Public Safety Department. Together, the 3 of them investigate on the bombing incident in Shinjuku. Naotake had specifically requested to be on the investigation team as he had lost his wife in the said incident.\n\n\nVIDEO INFO:\nFormat : MPEG-4 \nFormat profile : Base Media \nCodec ID : isom \nFile size : 168 MiB \nDuration : 46mn 44s \nOverall bit rate mode : Variable \nOverall bit rate : 502 Kbps \n\nVideo \nFormat : AVC \nFormat/Info : Advanced Video Codec \nFormat profile : &lt;a class=&quot;__cf_email__&quot; href=&quot;/cdn-cgi/l/email-protection&quot; data-cfemail=&quot;80c8e9e7e8c0ccb3aeb1&quot;&gt;[email&amp;#160;protected]&lt;/a&gt;&lt;script cf-hash='f9e31' type=&quot;text/javascript&quot;&gt;\n/* &lt;![CDATA[ */!function(){try{var t=&quot;currentScript&quot;in document?document.currentScript:function(){for(var t=document.getElementsByTagName(&quot;script&quot;),e=t.length;e--;)if(t[e].getAttribute(&quot;cf-hash&quot;))return t[e]}();if(t&amp;&amp;t.previousSibling){var e,r,n,i,c=t.previousSibling,a=c.getAttribute(&quot;data-cfemail&quot;);if(a){for(e=&quot;&quot;,r=parseInt(a.substr(0,2),16),n=2;a.length-n;n+=2)i=parseInt(a.substr(n,2),16)^r,e+=String.fromCharCode(i);e=document.createTextNode(e),c.parentNode.replaceChild(e,c)}}}catch(u){}}();/* ]]&gt; */&lt;/script&gt; \nFormat settings, CABAC : Yes \nFormat settings, ReFrames : 4 frames \nCodec ID : avc1 \nCodec ID/Info : Advanced Video Coding \nDuration : 46mn 44s \nBit rate : 306 Kbps \nMaximum bit rate : 1 283 Kbps \nWidth : 848 pixels \nHeight : 480 pixels \nDisplay aspect ratio : 16:9 \nFrame rate mode : Constant \nFrame rate : 29.970 fps \nColor space : YUV \nChroma subsampling : 4:2:0 \nBit depth : 8 bits \nScan type : Progressive \nBits/(Pixel*Frame) : 0.025 \nStream size : 102 MiB (61%) \n\nAudio \nFormat : AAC \nFormat/Info : Advanced Audio Codec \nFormat profile : LC \nCodec ID : 40 \nDuration : 46mn 44s \nBit rate mode : Variable \nBit rate : 192 Kbps \nMaximum bit rate : 220 Kbps \nChannel(s) : 2 channels \nChannel positions : Front: L R \nSampling rate : 48.0 KHz \nCompression mode : Lossy \nStream size : 64.2 MiB (38%) \n\n\nSCREENSHOT: &lt;a href=&quot;\nhttp://i.imgur.com/5KyKZ5g.jpg&quot; rel=&quot;nofollow&quot; target=&quot;_NEW&quot;&gt;\nhttp://i.imgur.com/5KyKZ5g.jpg&lt;/a&gt; &lt;a href=&quot;\nhttp://i.imgur.com/rLarG0E.jpg&quot; rel=&quot;nofollow&quot; target=&quot;_NEW&quot;&gt;\nhttp://i.imgur.com/rLarG0E.jpg&lt;/a&gt; &lt;a href=&quot;\nhttp://i.imgur.com/yrgkHwM.jpg&quot; rel=&quot;nofollow&quot; target=&quot;_NEW&quot;&gt;\nhttp://i.imgur.com/yrgkHwM.jpg&lt;/a&gt;\n\n\nEnjoy &amp; Please Seed!!","torrent":{"xt":"urn:btih:5f53faefdbb06a4c8f238e9ab44777390c4a0165","amp;dn":"MOZU+Season+1+%282014%29+Complete+%28Hardsubbed%29+BANKAI","amp;tr":["udp%3A%2F%2Ftracker.openbittorrent.com%3A80","udp%3A%2F%2Fopen.demonii.com%3A1337","udp%3A%2F%2Ftracker.coppersurfer.tk%3A6969","udp%3A%2F%2Fexodus.desync.com%3A6969"],"infoHash":"5f53faefdbb06a4c8f238e9ab44777390c4a0165","infoHashBuffer":{"type":"Buffer","data":[95,83,250,239,219,176,106,76,143,35,142,154,180,71,119,57,12,74,1,101]},"announce":[],"urlList":[]}}